<svg width="950" height="200" viewBox="0 0 950 200" fill="none" xmlns="http://www.w3.org/2000/svg">
<rect width="950" height="200" rx="24" fill="#24283B"/>
<rect width="950" height="200" rx="24" stroke="black"/>
<path d="M237.864 117.494C235.114 117.494 232.75 116.932 230.773 115.807C228.807 114.67 227.29 113.091 226.222 111.068C225.165 109.034 224.636 106.676 224.636 103.994C224.636 101.301 225.165 98.9432 226.222 96.9205C227.29 94.8864 228.807 93.3068 230.773 92.1818C232.75 91.0455 235.114 90.4773 237.864 90.4773C240.614 90.4773 242.972 91.0455 244.938 92.1818C246.915 93.3068 248.432 94.8864 249.489 96.9205C250.557 98.9432 251.091 101.301 251.091 103.994C251.091 106.676 250.557 109.034 249.489 111.068C248.432 113.091 246.915 114.67 244.938 115.807C242.972 116.932 240.614 117.494 237.864 117.494ZM237.915 111.205C238.915 111.205 239.761 110.898 240.455 110.284C241.148 109.67 241.676 108.818 242.04 107.727C242.415 106.636 242.602 105.375 242.602 103.943C242.602 102.489 242.415 101.216 242.04 100.125C241.676 99.0341 241.148 98.1818 240.455 97.5682C239.761 96.9545 238.915 96.6477 237.915 96.6477C236.881 96.6477 236.006 96.9545 235.29 97.5682C234.585 98.1818 234.045 99.0341 233.67 100.125C233.307 101.216 233.125 102.489 233.125 103.943C233.125 105.375 233.307 106.636 233.67 107.727C234.045 108.818 234.585 109.67 235.29 110.284C236.006 110.898 236.881 111.205 237.915 111.205ZM255.361 126.818V90.8182H263.611V95.3011H263.866C264.207 94.5057 264.69 93.7386 265.315 93C265.952 92.2614 266.759 91.6591 267.736 91.1932C268.724 90.7159 269.906 90.4773 271.281 90.4773C273.099 90.4773 274.798 90.9545 276.378 91.9091C277.969 92.8636 279.253 94.3352 280.23 96.3239C281.207 98.3125 281.696 100.847 281.696 103.926C281.696 106.892 281.224 109.375 280.281 111.375C279.349 113.375 278.088 114.875 276.497 115.875C274.918 116.875 273.162 117.375 271.23 117.375C269.912 117.375 268.77 117.159 267.804 116.727C266.838 116.295 266.026 115.727 265.366 115.023C264.719 114.318 264.219 113.562 263.866 112.756H263.696V126.818H255.361ZM263.526 103.909C263.526 105.318 263.713 106.545 264.088 107.591C264.474 108.636 265.026 109.449 265.741 110.028C266.469 110.597 267.338 110.881 268.349 110.881C269.372 110.881 270.241 110.597 270.957 110.028C271.673 109.449 272.213 108.636 272.577 107.591C272.952 106.545 273.139 105.318 273.139 103.909C273.139 102.5 272.952 101.278 272.577 100.244C272.213 99.2102 271.673 98.4091 270.957 97.8409C270.253 97.2727 269.384 96.9886 268.349 96.9886C267.327 96.9886 266.457 97.267 265.741 97.8239C265.026 98.3807 264.474 99.1761 264.088 100.21C263.713 101.244 263.526 102.477 263.526 103.909ZM286.064 117V90.8182H294.399V117H286.064ZM290.24 87.767C289.07 87.767 288.064 87.3807 287.223 86.608C286.382 85.8239 285.962 84.8807 285.962 83.7784C285.962 82.6875 286.382 81.7557 287.223 80.983C288.064 80.1989 289.07 79.8068 290.24 79.8068C291.422 79.8068 292.428 80.1989 293.257 80.983C294.098 81.7557 294.518 82.6875 294.518 83.7784C294.518 84.8807 294.098 85.8239 293.257 86.608C292.428 87.3807 291.422 87.767 290.24 87.767ZM308.04 102.068V117H299.705V90.8182H307.631V95.625H307.92C308.5 94.0227 309.489 92.767 310.886 91.858C312.284 90.9375 313.949 90.4773 315.881 90.4773C317.722 90.4773 319.318 90.892 320.67 91.7216C322.034 92.5398 323.091 93.6875 323.841 95.1648C324.602 96.6307 324.977 98.3466 324.966 100.312V117H316.631V101.949C316.642 100.494 316.273 99.358 315.523 98.5398C314.784 97.7216 313.756 97.3125 312.438 97.3125C311.562 97.3125 310.79 97.5057 310.119 97.892C309.46 98.267 308.949 98.8068 308.585 99.5114C308.233 100.216 308.051 101.068 308.04 102.068ZM330.126 117V90.8182H338.462V117H330.126ZM334.303 87.767C333.132 87.767 332.126 87.3807 331.286 86.608C330.445 85.8239 330.024 84.8807 330.024 83.7784C330.024 82.6875 330.445 81.7557 331.286 80.983C332.126 80.1989 333.132 79.8068 334.303 79.8068C335.484 79.8068 336.49 80.1989 337.32 80.983C338.161 81.7557 338.581 82.6875 338.581 83.7784C338.581 84.8807 338.161 85.8239 337.32 86.608C336.49 87.3807 335.484 87.767 334.303 87.767ZM355.989 117.494C353.239 117.494 350.875 116.932 348.898 115.807C346.932 114.67 345.415 113.091 344.347 111.068C343.29 109.034 342.761 106.676 342.761 103.994C342.761 101.301 343.29 98.9432 344.347 96.9205C345.415 94.8864 346.932 93.3068 348.898 92.1818C350.875 91.0455 353.239 90.4773 355.989 90.4773C358.739 90.4773 361.097 91.0455 363.062 92.1818C365.04 93.3068 366.557 94.8864 367.614 96.9205C368.682 98.9432 369.216 101.301 369.216 103.994C369.216 106.676 368.682 109.034 367.614 111.068C366.557 113.091 365.04 114.67 363.062 115.807C361.097 116.932 358.739 117.494 355.989 117.494ZM356.04 111.205C357.04 111.205 357.886 110.898 358.58 110.284C359.273 109.67 359.801 108.818 360.165 107.727C360.54 106.636 360.727 105.375 360.727 103.943C360.727 102.489 360.54 101.216 360.165 100.125C359.801 99.0341 359.273 98.1818 358.58 97.5682C357.886 96.9545 357.04 96.6477 356.04 96.6477C355.006 96.6477 354.131 96.9545 353.415 97.5682C352.71 98.1818 352.17 99.0341 351.795 100.125C351.432 101.216 351.25 102.489 351.25 103.943C351.25 105.375 351.432 106.636 351.795 107.727C352.17 108.818 352.71 109.67 353.415 110.284C354.131 110.898 355.006 111.205 356.04 111.205ZM381.821 102.068V117H373.486V90.8182H381.412V95.625H381.702C382.281 94.0227 383.27 92.767 384.668 91.858C386.065 90.9375 387.73 90.4773 389.662 90.4773C391.503 90.4773 393.099 90.892 394.452 91.7216C395.815 92.5398 396.872 93.6875 397.622 95.1648C398.384 96.6307 398.759 98.3466 398.747 100.312V117H390.412V101.949C390.423 100.494 390.054 99.358 389.304 98.5398C388.565 97.7216 387.537 97.3125 386.219 97.3125C385.344 97.3125 384.571 97.5057 383.901 97.892C383.241 98.267 382.73 98.8068 382.366 99.5114C382.014 100.216 381.832 101.068 381.821 102.068ZM411.288 117.443C409.618 117.443 408.135 117.165 406.839 116.608C405.555 116.04 404.538 115.187 403.788 114.051C403.05 112.903 402.68 111.466 402.68 109.739C402.68 108.284 402.936 107.057 403.447 106.057C403.959 105.057 404.663 104.244 405.561 103.619C406.459 102.994 407.493 102.523 408.663 102.205C409.834 101.875 411.084 101.653 412.413 101.54C413.902 101.403 415.101 101.261 416.01 101.114C416.919 100.955 417.578 100.733 417.987 100.449C418.408 100.153 418.618 99.7386 418.618 99.2045V99.1193C418.618 98.2443 418.317 97.5682 417.714 97.0909C417.112 96.6136 416.3 96.375 415.277 96.375C414.175 96.375 413.288 96.6136 412.618 97.0909C411.947 97.5682 411.521 98.2273 411.339 99.0682L403.652 98.7955C403.879 97.2045 404.464 95.7841 405.408 94.5341C406.362 93.2727 407.669 92.2841 409.328 91.5682C410.999 90.8409 413.004 90.4773 415.345 90.4773C417.016 90.4773 418.555 90.6761 419.964 91.0739C421.374 91.4602 422.601 92.0284 423.646 92.7784C424.692 93.517 425.499 94.4261 426.067 95.5057C426.646 96.5852 426.936 97.8182 426.936 99.2045V117H419.095V113.352H418.891C418.425 114.239 417.828 114.989 417.101 115.602C416.385 116.216 415.538 116.676 414.561 116.983C413.595 117.29 412.504 117.443 411.288 117.443ZM413.862 111.989C414.76 111.989 415.567 111.807 416.283 111.443C417.01 111.08 417.589 110.58 418.021 109.943C418.453 109.295 418.669 108.545 418.669 107.693V105.205C418.43 105.33 418.141 105.443 417.8 105.545C417.47 105.648 417.107 105.744 416.709 105.835C416.311 105.926 415.902 106.006 415.482 106.074C415.061 106.142 414.658 106.205 414.271 106.261C413.487 106.386 412.817 106.58 412.26 106.841C411.714 107.102 411.294 107.443 410.999 107.864C410.714 108.273 410.572 108.761 410.572 109.33C410.572 110.193 410.879 110.852 411.493 111.307C412.118 111.761 412.908 111.989 413.862 111.989ZM446.811 90.8182V96.9545H430.294V90.8182H446.811ZM433.754 84.5455H442.089V108.767C442.089 109.278 442.169 109.693 442.328 110.011C442.499 110.318 442.743 110.54 443.061 110.676C443.379 110.801 443.76 110.864 444.203 110.864C444.521 110.864 444.857 110.835 445.209 110.778C445.572 110.71 445.845 110.653 446.027 110.608L447.288 116.625C446.891 116.739 446.328 116.881 445.601 117.051C444.885 117.222 444.027 117.33 443.027 117.375C441.072 117.466 439.396 117.239 437.999 116.693C436.612 116.136 435.55 115.273 434.811 114.102C434.084 112.932 433.732 111.46 433.754 109.688V84.5455ZM463.021 117.494C460.283 117.494 457.919 116.955 455.93 115.875C453.953 114.784 452.43 113.233 451.362 111.222C450.305 109.199 449.777 106.795 449.777 104.011C449.777 101.307 450.311 98.9432 451.379 96.9205C452.447 94.8864 453.953 93.3068 455.896 92.1818C457.839 91.0455 460.129 90.4773 462.766 90.4773C464.629 90.4773 466.334 90.767 467.879 91.3466C469.425 91.9261 470.76 92.7841 471.885 93.9205C473.01 95.0568 473.885 96.4602 474.51 98.1307C475.135 99.7898 475.447 101.693 475.447 103.841V105.92H452.692V101.08H467.692C467.68 100.193 467.47 99.4034 467.061 98.7102C466.652 98.017 466.089 97.4773 465.374 97.0909C464.669 96.6932 463.857 96.4943 462.936 96.4943C462.004 96.4943 461.169 96.7045 460.43 97.125C459.692 97.5341 459.107 98.0966 458.675 98.8125C458.243 99.517 458.016 100.318 457.993 101.216V106.142C457.993 107.21 458.203 108.148 458.624 108.955C459.044 109.75 459.641 110.369 460.413 110.812C461.186 111.256 462.107 111.477 463.175 111.477C463.913 111.477 464.584 111.375 465.186 111.17C465.788 110.966 466.305 110.665 466.737 110.267C467.169 109.869 467.493 109.381 467.709 108.801L475.362 109.023C475.044 110.739 474.345 112.233 473.266 113.506C472.197 114.767 470.794 115.75 469.055 116.455C467.317 117.148 465.305 117.494 463.021 117.494ZM489.267 117.375C487.335 117.375 485.58 116.875 484 115.875C482.42 114.875 481.159 113.375 480.216 111.375C479.273 109.375 478.801 106.892 478.801 103.926C478.801 100.847 479.29 98.3125 480.267 96.3239C481.244 94.3352 482.523 92.8636 484.102 91.9091C485.693 90.9545 487.403 90.4773 489.233 90.4773C490.608 90.4773 491.784 90.7159 492.761 91.1932C493.739 91.6591 494.545 92.2614 495.182 93C495.818 93.7386 496.301 94.5057 496.631 95.3011H496.801V82.0909H505.136V117H496.886V112.756H496.631C496.278 113.562 495.778 114.318 495.131 115.023C494.483 115.727 493.67 116.295 492.693 116.727C491.727 117.159 490.585 117.375 489.267 117.375ZM492.165 110.881C493.176 110.881 494.04 110.597 494.756 110.028C495.472 109.449 496.023 108.636 496.409 107.591C496.795 106.545 496.989 105.318 496.989 103.909C496.989 102.477 496.795 101.244 496.409 100.21C496.034 99.1761 495.483 98.3807 494.756 97.8239C494.04 97.267 493.176 96.9886 492.165 96.9886C491.131 96.9886 490.256 97.2727 489.54 97.8409C488.824 98.4091 488.278 99.2102 487.903 100.244C487.54 101.278 487.358 102.5 487.358 103.909C487.358 105.318 487.545 106.545 487.92 107.591C488.295 108.636 488.835 109.449 489.54 110.028C490.256 110.597 491.131 110.881 492.165 110.881ZM527.163 99.6648V106.091H511.004V99.6648H527.163ZM542.611 117.375C540.679 117.375 538.923 116.875 537.344 115.875C535.764 114.875 534.503 113.375 533.56 111.375C532.616 109.375 532.145 106.892 532.145 103.926C532.145 100.847 532.634 98.3125 533.611 96.3239C534.588 94.3352 535.866 92.8636 537.446 91.9091C539.037 90.9545 540.747 90.4773 542.577 90.4773C543.952 90.4773 545.128 90.7159 546.105 91.1932C547.082 91.6591 547.889 92.2614 548.526 93C549.162 93.7386 549.645 94.5057 549.974 95.3011H550.145V82.0909H558.48V117H550.23V112.756H549.974C549.622 113.562 549.122 114.318 548.474 115.023C547.827 115.727 547.014 116.295 546.037 116.727C545.071 117.159 543.929 117.375 542.611 117.375ZM545.509 110.881C546.52 110.881 547.384 110.597 548.099 110.028C548.815 109.449 549.366 108.636 549.753 107.591C550.139 106.545 550.332 105.318 550.332 103.909C550.332 102.477 550.139 101.244 549.753 100.21C549.378 99.1761 548.827 98.3807 548.099 97.8239C547.384 97.267 546.52 96.9886 545.509 96.9886C544.474 96.9886 543.599 97.2727 542.884 97.8409C542.168 98.4091 541.622 99.2102 541.247 100.244C540.884 101.278 540.702 102.5 540.702 103.909C540.702 105.318 540.889 106.545 541.264 107.591C541.639 108.636 542.179 109.449 542.884 110.028C543.599 110.597 544.474 110.881 545.509 110.881ZM575.99 117.494C573.251 117.494 570.888 116.955 568.899 115.875C566.922 114.784 565.399 113.233 564.331 111.222C563.274 109.199 562.746 106.795 562.746 104.011C562.746 101.307 563.28 98.9432 564.348 96.9205C565.416 94.8864 566.922 93.3068 568.865 92.1818C570.808 91.0455 573.098 90.4773 575.734 90.4773C577.598 90.4773 579.303 90.767 580.848 91.3466C582.393 91.9261 583.729 92.7841 584.854 93.9205C585.979 95.0568 586.854 96.4602 587.479 98.1307C588.104 99.7898 588.416 101.693 588.416 103.841V105.92H565.661V101.08H580.661C580.649 100.193 580.439 99.4034 580.03 98.7102C579.621 98.017 579.058 97.4773 578.342 97.0909C577.638 96.6932 576.825 96.4943 575.905 96.4943C574.973 96.4943 574.138 96.7045 573.399 97.125C572.661 97.5341 572.075 98.0966 571.643 98.8125C571.212 99.517 570.984 100.318 570.962 101.216V106.142C570.962 107.21 571.172 108.148 571.592 108.955C572.013 109.75 572.609 110.369 573.382 110.812C574.155 111.256 575.075 111.477 576.143 111.477C576.882 111.477 577.553 111.375 578.155 111.17C578.757 110.966 579.274 110.665 579.706 110.267C580.138 109.869 580.462 109.381 580.678 108.801L588.331 109.023C588.013 110.739 587.314 112.233 586.234 113.506C585.166 114.767 583.763 115.75 582.024 116.455C580.286 117.148 578.274 117.494 575.99 117.494ZM607.554 90.8182V96.9545H590.713V90.8182H607.554ZM594.224 117V89.4886C594.224 87.4659 594.605 85.7898 595.366 84.4602C596.128 83.1193 597.185 82.1193 598.537 81.4602C599.889 80.7898 601.452 80.4545 603.224 80.4545C604.384 80.4545 605.474 80.5455 606.497 80.7273C607.531 80.8977 608.298 81.0511 608.798 81.1875L607.469 87.2898C607.162 87.1875 606.787 87.1023 606.344 87.0341C605.912 86.9659 605.503 86.9318 605.116 86.9318C604.139 86.9318 603.469 87.1477 603.105 87.5795C602.741 88.0114 602.56 88.6023 602.56 89.3523V117H594.224ZM617.913 117.443C616.243 117.443 614.76 117.165 613.464 116.608C612.18 116.04 611.163 115.187 610.413 114.051C609.675 112.903 609.305 111.466 609.305 109.739C609.305 108.284 609.561 107.057 610.072 106.057C610.584 105.057 611.288 104.244 612.186 103.619C613.084 102.994 614.118 102.523 615.288 102.205C616.459 101.875 617.709 101.653 619.038 101.54C620.527 101.403 621.726 101.261 622.635 101.114C623.544 100.955 624.203 100.733 624.612 100.449C625.033 100.153 625.243 99.7386 625.243 99.2045V99.1193C625.243 98.2443 624.942 97.5682 624.339 97.0909C623.737 96.6136 622.925 96.375 621.902 96.375C620.8 96.375 619.913 96.6136 619.243 97.0909C618.572 97.5682 618.146 98.2273 617.964 99.0682L610.277 98.7955C610.504 97.2045 611.089 95.7841 612.033 94.5341C612.987 93.2727 614.294 92.2841 615.953 91.5682C617.624 90.8409 619.629 90.4773 621.97 90.4773C623.641 90.4773 625.18 90.6761 626.589 91.0739C627.999 91.4602 629.226 92.0284 630.271 92.7784C631.317 93.517 632.124 94.4261 632.692 95.5057C633.271 96.5852 633.561 97.8182 633.561 99.2045V117H625.72V113.352H625.516C625.05 114.239 624.453 114.989 623.726 115.602C623.01 116.216 622.163 116.676 621.186 116.983C620.22 117.29 619.129 117.443 617.913 117.443ZM620.487 111.989C621.385 111.989 622.192 111.807 622.908 111.443C623.635 111.08 624.214 110.58 624.646 109.943C625.078 109.295 625.294 108.545 625.294 107.693V105.205C625.055 105.33 624.766 105.443 624.425 105.545C624.095 105.648 623.732 105.744 623.334 105.835C622.936 105.926 622.527 106.006 622.107 106.074C621.686 106.142 621.283 106.205 620.896 106.261C620.112 106.386 619.442 106.58 618.885 106.841C618.339 107.102 617.919 107.443 617.624 107.864C617.339 108.273 617.197 108.761 617.197 109.33C617.197 110.193 617.504 110.852 618.118 111.307C618.743 111.761 619.533 111.989 620.487 111.989ZM655.55 105.699V90.8182H663.868V117H655.925V112.125H655.652C655.072 113.727 654.084 115 652.686 115.943C651.3 116.875 649.624 117.341 647.658 117.341C645.874 117.341 644.305 116.932 642.953 116.114C641.601 115.295 640.55 114.153 639.8 112.688C639.05 111.21 638.669 109.483 638.658 107.506V90.8182H646.993V105.869C647.004 107.29 647.379 108.409 648.118 109.227C648.857 110.045 649.862 110.455 651.135 110.455C651.964 110.455 652.709 110.273 653.368 109.909C654.038 109.534 654.567 108.994 654.953 108.29C655.351 107.574 655.55 106.71 655.55 105.699ZM677.509 82.0909V117H669.173V82.0909H677.509ZM697.592 90.8182V96.9545H681.075V90.8182H697.592ZM684.536 84.5455H692.871V108.767C692.871 109.278 692.95 109.693 693.109 110.011C693.28 110.318 693.524 110.54 693.842 110.676C694.161 110.801 694.541 110.864 694.984 110.864C695.303 110.864 695.638 110.835 695.99 110.778C696.354 110.71 696.626 110.653 696.808 110.608L698.07 116.625C697.672 116.739 697.109 116.881 696.382 117.051C695.666 117.222 694.808 117.33 693.808 117.375C691.854 117.466 690.178 117.239 688.78 116.693C687.393 116.136 686.331 115.273 685.592 114.102C684.865 112.932 684.513 111.46 684.536 109.688V84.5455ZM724.375 98.8125L716.722 99.017C716.642 98.4716 716.426 97.9886 716.074 97.5682C715.722 97.1364 715.261 96.8011 714.693 96.5625C714.136 96.3125 713.489 96.1875 712.75 96.1875C711.784 96.1875 710.96 96.3807 710.278 96.767C709.608 97.1534 709.278 97.6761 709.29 98.3352C709.278 98.8466 709.483 99.2898 709.903 99.6648C710.335 100.04 711.102 100.341 712.205 100.568L717.25 101.523C719.864 102.023 721.807 102.852 723.08 104.011C724.364 105.17 725.011 106.705 725.023 108.614C725.011 110.409 724.477 111.972 723.42 113.301C722.375 114.631 720.943 115.665 719.125 116.403C717.307 117.131 715.227 117.494 712.886 117.494C709.148 117.494 706.199 116.727 704.04 115.193C701.892 113.648 700.665 111.58 700.358 108.989L708.591 108.784C708.773 109.739 709.244 110.466 710.006 110.966C710.767 111.466 711.739 111.716 712.92 111.716C713.989 111.716 714.858 111.517 715.528 111.119C716.199 110.722 716.54 110.193 716.551 109.534C716.54 108.943 716.278 108.472 715.767 108.119C715.256 107.756 714.455 107.472 713.364 107.267L708.795 106.398C706.17 105.92 704.216 105.04 702.932 103.756C701.648 102.46 701.011 100.812 701.023 98.8125C701.011 97.0625 701.477 95.5682 702.42 94.3295C703.364 93.0795 704.705 92.125 706.443 91.4659C708.182 90.8068 710.233 90.4773 712.597 90.4773C716.142 90.4773 718.938 91.2216 720.983 92.7102C723.028 94.1875 724.159 96.2216 724.375 98.8125Z" fill="#C9CBD2"/>
</svg>
